# xmcd
#
# Track frame offsets:
#	150
#	12087
#	24832
#	37135
#	50150
#	62627
#	77712
#	89752
#	103677
#	118042
#
# Disc length: 1733 seconds
#
# Revision: 0
# Processed by: cddbd v1.5.1PL0 Copyright (c) Steve Scherf et al.
# Submitted via: dBpowerAMP V4.0
#
DISCID=8006c30a
DTITLE=Bobby Bare - Super Hits
DYEAR=1900
DGENRE=
TTITLE0=The Streets of Baltimore
TTITLE1=Detroit City
TTITLE2=500 Miles Away From Home
TTITLE3=Miller's Cave
TTITLE4=Four Strong Winds
TTITLE5=(Margie's At) The Lincoln Park Inn
TTITLE6=It's Alright
TTITLE7=Daddy What If
TTITLE8=Marie Laveau
TTITLE9=Dropkick Me, Jesus
EXTD=More from Radio Vagabond
EXTT0=
EXTT1=
EXTT2=
EXTT3=
EXTT4=
EXTT5=
EXTT6=
EXTT7=
EXTT8=
EXTT9=
PLAYORDER=
